<svg width="23" height="23" viewBox="0 0 23 23" fill="none" xmlns="http://www.w3.org/2000/svg">
<path d="M21.0969 8.41866C21.0392 8.24885 20.9331 8.09964 20.7916 7.98945C20.6501 7.87926 20.4795 7.81292 20.3007 7.79861L15.0716 7.3831L12.8087 2.37409C12.7367 2.21276 12.6195 2.07573 12.4712 1.97955C12.323 1.88336 12.1501 1.83213 11.9734 1.83203C11.7968 1.83193 11.6238 1.88298 11.4755 1.979C11.3272 2.07502 11.2098 2.21192 11.1375 2.37317L8.87473 7.3831L3.64558 7.79861C3.46989 7.81253 3.30193 7.87677 3.16179 7.98364C3.02165 8.09052 2.91527 8.23551 2.85537 8.40126C2.79548 8.56701 2.7846 8.74651 2.82405 8.91828C2.8635 9.09005 2.9516 9.24682 3.07781 9.36983L6.94212 13.1369L5.57544 19.0549C5.53394 19.234 5.54724 19.4215 5.61361 19.593C5.67999 19.7645 5.79637 19.9121 5.94765 20.0166C6.09894 20.1211 6.27815 20.1777 6.46202 20.1791C6.6459 20.1805 6.82594 20.1266 6.97881 20.0244L11.9731 16.6949L16.9675 20.0244C17.1237 20.1282 17.308 20.1816 17.4955 20.1774C17.683 20.1733 17.8647 20.1119 18.0162 20.0014C18.1678 19.8909 18.2819 19.7367 18.3431 19.5595C18.4044 19.3822 18.4099 19.1904 18.3589 19.01L16.6813 13.1397L20.8419 9.39551C21.1143 9.1497 21.2143 8.76629 21.0969 8.41866Z" fill="#F3CD03"/>
</svg>
