<svg width="23" height="23" viewBox="0 0 23 23" fill="none" xmlns="http://www.w3.org/2000/svg">
<path d="M5.99967 13.1384L4.633 19.0564C4.59068 19.2356 4.60338 19.4234 4.66945 19.5953C4.73552 19.7671 4.85189 19.9151 5.00335 20.0198C5.15481 20.1245 5.33432 20.1811 5.51845 20.1822C5.70258 20.1833 5.88275 20.1288 6.03545 20.0259L11.0298 16.6964L16.0241 20.0259C16.1804 20.1297 16.3646 20.1831 16.5521 20.1789C16.7396 20.1748 16.9213 20.1134 17.0729 20.0029C17.2244 19.8924 17.3385 19.7382 17.3998 19.5609C17.461 19.3837 17.4665 19.1919 17.4156 19.0115L15.7379 13.1412L19.8985 9.39701C20.0318 9.27702 20.1269 9.12061 20.1722 8.94712C20.2175 8.77362 20.211 8.59065 20.1534 8.42083C20.0958 8.25102 19.9897 8.1018 19.8483 7.99164C19.7068 7.88148 19.5361 7.81521 19.3574 7.80102L14.1282 7.3846L11.8654 2.37558C11.7932 2.21429 11.6759 2.07733 11.5277 1.98123C11.3794 1.88512 11.2065 1.83398 11.0298 1.83398C10.8531 1.83398 10.6802 1.88512 10.5319 1.98123C10.3836 2.07733 10.2663 2.21429 10.1942 2.37558L7.93137 7.3846L2.70222 7.8001C2.52653 7.81402 2.35857 7.87826 2.21843 7.98514C2.07829 8.09201 1.97191 8.237 1.91202 8.40275C1.85212 8.56851 1.84125 8.748 1.88069 8.91977C1.92014 9.09155 2.00824 9.24831 2.13445 9.37133L5.99967 13.1384ZM8.61654 9.17045C8.78027 9.15755 8.9375 9.10085 9.07177 9.00628C9.20604 8.91171 9.31239 8.78276 9.37968 8.63295L11.0298 4.98144L12.6799 8.63295C12.7472 8.78276 12.8535 8.91171 12.9878 9.00628C13.1221 9.10085 13.2793 9.15755 13.443 9.17045L17.0863 9.45938L14.086 12.1597C13.8255 12.3945 13.7219 12.7559 13.8173 13.0935L14.9666 17.1155L11.5398 14.8307C11.3894 14.7298 11.2123 14.6758 11.0312 14.6758C10.85 14.6758 10.673 14.7298 10.5226 14.8307L6.94167 17.2183L7.90477 13.0485C7.94008 12.8952 7.93534 12.7353 7.89101 12.5843C7.84667 12.4333 7.76423 12.2962 7.65161 12.1863L4.86506 9.46947L8.61654 9.17045Z" fill="#F3CD03"/>
</svg>
