<svg width="21" height="32" viewBox="0 0 21 32" fill="none" xmlns="http://www.w3.org/2000/svg">
<g clip-path="url(#clip0_2645_1297)">
<path d="M5.77539 21.6055H15.2247V26.3301H5.77539V21.6055Z" fill="#E74040"/>
<path d="M10.4997 3.65234C4.76833 3.65234 0.105469 8.31527 0.105469 14.0466V28.2206C0.105469 30.3047 1.80105 32.0003 3.8852 32.0003H17.1142C19.1984 32.0003 20.894 30.3047 20.894 28.2206V14.0466C20.894 8.31521 16.2312 3.65234 10.4997 3.65234ZM4.83013 12.1567H16.1693V14.0466H14.2795V15.9365H12.3896V14.0466H4.83013V12.1567ZM17.1142 28.2206H3.8852V19.7162H17.1142V28.2206Z" fill="#E74040"/>
<path d="M20.2042 1.83877L14.8411 0L14.0566 2.288C15.9519 2.86245 17.6545 3.88336 19.0422 5.22799L20.2042 1.83877Z" fill="#E74040"/>
<path d="M6.94253 2.288L6.15804 0L0.794922 1.83877L1.95694 5.22799C3.3446 3.88342 5.04731 2.86245 6.94253 2.288Z" fill="#E74040"/>
</g>
<defs>
<clipPath id="clip0_2645_1297">
<rect width="20.7885" height="32" fill="white" transform="translate(0.105469)"/>
</clipPath>
</defs>
</svg>
