<svg width="33" height="32" viewBox="0 0 33 32" fill="none" xmlns="http://www.w3.org/2000/svg">
<g clip-path="url(#clip0_2645_1275)">
<g clip-path="url(#clip1_2645_1275)">
<path d="M2.21484 19.9994C2.21484 20.315 2.4707 20.5709 2.78627 20.5709H30.2148C30.5304 20.5709 30.7863 20.315 30.7863 19.9994V2.28516H2.21484V19.9994Z" fill="#E74040"/>
<path d="M31.9286 0H1.07143C0.755859 0 0.5 0.255859 0.5 0.571429C0.5 0.886998 0.755859 1.14286 1.07143 1.14286H31.9286C32.2441 1.14286 32.5 0.886998 32.5 0.571429C32.5 0.255859 32.2441 0 31.9286 0Z" fill="#E74040"/>
<path d="M21.072 29.7148H17.072V22.8577H17.6434C17.959 22.8577 18.2148 22.6018 18.2148 22.2863V21.7148H14.7863V22.2863C14.7863 22.6018 15.0421 22.8577 15.3577 22.8577H15.9291V29.7148H11.9291C10.9824 29.7148 10.2148 30.4824 10.2148 31.4291V32.0006H22.7863V31.4291C22.7863 30.4824 22.0187 29.7148 21.072 29.7148Z" fill="#E74040"/>
</g>
</g>
<defs>
<clipPath id="clip0_2645_1275">
<rect width="32" height="32" fill="white" transform="translate(0.5)"/>
</clipPath>
<clipPath id="clip1_2645_1275">
<rect width="32" height="32" fill="white" transform="translate(0.5)"/>
</clipPath>
</defs>
</svg>
