<svg width="33" height="32" viewBox="0 0 33 32" fill="none" xmlns="http://www.w3.org/2000/svg">
<g clip-path="url(#clip0_2645_1280)">
<g clip-path="url(#clip1_2645_1280)">
<path d="M14.0947 12.4947C14.1323 12.465 14.1716 12.4384 14.2105 12.4104C14.3096 12.339 14.4131 12.2745 14.5207 12.2172C14.5629 12.1941 14.6038 12.1711 14.6472 12.1508C15.6515 11.663 16.8506 11.8274 17.6867 12.5671C17.7308 12.6056 17.7668 12.6492 17.8085 12.6898C17.8925 12.7708 17.9716 12.8567 18.0451 12.9473C18.0868 12.9994 18.1217 13.0557 18.1576 13.1108C18.2175 13.1976 18.2726 13.2876 18.3223 13.3806C18.3544 13.4413 18.3824 13.5031 18.4099 13.5662C18.451 13.6603 18.4867 13.7569 18.5172 13.8549C18.5375 13.9208 18.5567 13.9856 18.5735 14.0523C18.5965 14.1546 18.6138 14.2578 18.6253 14.3621C18.633 14.4272 18.6426 14.4914 18.6459 14.557C18.65 14.6715 18.647 14.7859 18.6371 14.9001C18.633 14.9561 18.6336 15.0124 18.6264 15.0686C18.6036 15.2328 18.5658 15.3947 18.5139 15.552C18.5139 15.5605 18.5112 15.5684 18.5084 15.5767L20.0177 16.4481L22.8282 11.5758L7.2539 2.58203L4.44336 7.45381L13.7417 12.8213C13.8496 12.7024 13.9679 12.5932 14.0947 12.4947Z" fill="#E74040"/>
<path d="M1.6543 7.78827L6.15116 0L7.12414 0.561834L2.62728 8.3501L1.6543 7.78827Z" fill="#E74040"/>
<path d="M26.9883 17.8725L27.5507 16.8984L31.4448 19.1469L30.8824 20.121L26.9883 17.8725Z" fill="#E74040"/>
<path d="M21.5586 16.0333L23.2449 13.1133L27.139 15.362L25.4527 18.282L21.5586 16.0333Z" fill="#E74040"/>
<path d="M17.1707 15.9645C17.1449 15.917 17.1122 15.8736 17.0735 15.8358C17.1622 15.7438 17.2399 15.6417 17.3046 15.5317C17.7688 14.7247 17.4946 13.6947 16.6907 13.2253C16.5751 13.1605 16.4521 13.1098 16.3248 13.0735C16.2872 13.0623 16.2485 13.0554 16.2125 13.0469C16.12 13.0269 16.0259 13.0145 15.9315 13.0099C15.8909 13.0099 15.8511 13.0049 15.8104 13.006C15.6762 13.009 15.5428 13.028 15.413 13.0623C14.8402 13.213 14.3893 13.6551 14.2276 14.2252C14.0659 14.7953 14.2174 15.4082 14.6261 15.8374C14.5877 15.8747 14.5553 15.9176 14.5295 15.9645L6.91278 31.1862C6.77417 31.4642 6.88698 31.8018 7.16474 31.9407C7.4425 32.0793 7.78037 31.9667 7.91898 31.6887L15.2854 16.9504V31.4376C15.2854 31.748 15.5371 31.9997 15.8475 31.9997C16.1579 31.9997 16.4096 31.748 16.4096 31.4376V16.9548L23.7733 31.6887C23.9122 31.9667 24.2497 32.0793 24.5278 31.9407C24.8055 31.8018 24.9183 31.4642 24.7795 31.1862L17.1707 15.9645Z" fill="#E74040"/>
</g>
</g>
<defs>
<clipPath id="clip0_2645_1280">
<rect width="32" height="32" fill="white" transform="translate(0.5)"/>
</clipPath>
<clipPath id="clip1_2645_1280">
<rect width="32" height="32" fill="white" transform="translate(0.5)"/>
</clipPath>
</defs>
</svg>
